<svg width="58" height="70" viewBox="0 0 58 70" fill="none" xmlns="http://www.w3.org/2000/svg">
<g clip-path="url(#clip0_8_789)">
<path d="M28.2252 43.2892C28.2252 45.0523 29.2353 56.5015 26.6986 55.6027C25.1892 55.0703 26.3026 44.5314 26.3083 42.9285C26.3256 38.7839 25.6254 33.9181 26.756 29.8593C26.9224 29.2697 28.9656 25.9437 27.6111 25.5373C26.6355 25.2396 25.8377 28.1191 25.5967 28.7831C23.984 33.1968 24.6095 38.2344 24.6153 42.8484C24.6153 44.9779 25.7402 54.6753 24.2652 55.431C22.1589 56.5015 22.8878 45.0924 22.8935 43.7357C22.9107 39.6999 23.829 34.7882 23.2321 30.8611C20.4544 31.6569 18.1243 32.6987 15.9262 29.888C13.5674 26.8768 15.8286 24.6672 16.6493 21.7534C14.1528 21.7934 11.9662 28.0218 11.4669 29.8708C10.3764 33.878 11.3119 38.0684 13.7797 41.3943C14.8989 42.8999 16.3451 44.2337 17.9177 45.2527C18.7441 45.7851 20.902 46.3518 21.3669 47.1246C21.9294 48.0463 21.5678 50.9715 21.476 52.1794C21.2521 55.1734 22.1761 54.4063 19.4845 54.2861C11.7653 53.9426 4.26994 44.291 1.74471 37.8795C-1.23966 30.3001 -0.28122 21.3755 3.80507 14.3973C13.0623 -1.40824 35.3131 -4.95175 48.8346 7.53353C61.8338 19.5322 61.1393 41.0852 45.9018 50.92C44.0596 52.1107 42.0853 53.0839 40.0307 53.851C36.7995 55.0532 37.3161 55.1791 36.7364 52.5458C35.336 46.2087 39.0665 47.0559 42.7683 43.5182C45.8559 40.5643 47.5605 36.3853 47.13 32.132C46.889 29.7792 44.4039 21.3698 41.1269 21.6503C42.6076 24.484 44.9262 26.2471 42.5789 29.6304C40.5128 32.6014 37.9072 31.7885 34.9974 30.6093C34.2112 36.0247 35.2729 42.5507 35.2614 48.0864C35.2614 49.6091 36.0707 54.5437 34.5899 55.2936C32.7477 56.2267 33.4995 52.002 33.5052 51.378C33.5454 45.4073 33.9816 39.2648 33.3847 33.3113C33.1092 30.5692 32.4894 27.5924 31.1063 25.1537C30.607 24.2722 28.3802 20.9863 28.5122 24.0718C28.5122 24.1691 30.2913 26.8597 30.3487 26.9799C31.4736 29.4243 31.7835 32.3266 31.8868 34.9657C32.1164 40.8391 32.3517 47.159 31.9155 53.0152C31.8811 53.4961 31.2153 57.572 30.0158 55.1905C29.109 53.393 30.0158 48.3611 30.0158 46.535C30.0273 41.2684 31.5654 33.0307 28.9426 28.1992C26.7388 31.7885 28.2137 39.2705 28.2137 43.2892C28.2195 43.2892 28.2252 43.2892 28.231 43.2892H28.2252ZM4.01741 27.8042C4.1322 29.8937 4.12646 37.3757 6.29012 38.2745C7.1223 36.1964 5.94577 32.0404 6.4336 29.6533C7.09935 26.3845 8.67188 23.2131 11.0938 20.8889C13.3665 18.7079 16.4657 17.168 19.6452 16.939C21.4243 16.8131 22.9681 17.0878 24.6382 17.6889C25.8549 18.1297 27.9268 19.973 29.0803 19.9215C30.3602 19.8642 32.3804 18.1068 33.6717 17.6546C35.4393 17.0306 37.2874 16.7444 39.1641 16.9504C42.3436 17.2996 45.3853 18.9998 47.5432 21.3068C49.793 23.7054 51.3081 26.8997 51.9107 30.1112C52.4674 33.0765 51.2794 36.2938 51.8591 39.0988C53.9883 37.7249 53.8735 31.8171 53.4202 29.6361C52.697 26.1727 50.7285 22.0968 48.9723 19.08C47.0669 15.8055 44.5359 12.886 41.3622 10.7794C39.9331 9.82908 38.3721 9.33677 36.8971 8.54105C38.0105 9.14213 31.2498 6.06232 33.9012 6.15963C39.4797 6.35999 45.0352 10.7336 48.2606 14.9812C50.0857 17.3855 51.5607 20.0703 52.5306 22.9269C53.1791 24.8332 53.1906 27.2489 54.149 28.9949C55.4576 23.1273 50.5506 15.422 46.5618 11.5236C44.094 9.10779 41.1728 7.19006 37.9187 5.99362C37.2357 5.74174 31.2038 4.43081 31.7204 4.98037C29.9699 4.85443 27.7546 5.30095 26.1304 5.01472C26.2969 4.24763 20.374 5.83906 20.1445 5.9192C17.3552 6.93245 14.8644 8.58113 12.6319 10.516C7.93153 14.6034 3.5468 21.3068 4.01168 27.8099L4.01741 27.8042ZM50.5506 34.4161C50.5219 28.0847 47.6638 21.2725 41.1957 19.1143C38.263 18.1354 34.5383 18.3587 31.9499 20.2077C31.5425 20.4997 28.9885 21.8507 30.6299 22.7723C30.9341 22.9441 35.755 20.4653 36.6446 20.3566C39.4568 20.0131 42.1714 20.7229 44.358 22.572C49.6782 27.0543 50.1259 35.6927 46.625 41.3142C44.6564 44.4684 42.1312 45.4817 39.4625 47.6856C38.2401 48.6989 36.5011 49.8095 38.9804 49.5118C45.2361 48.7561 50.4874 40.072 50.5563 34.4161H50.5506ZM2.44488 28.7259C3.44924 12.7601 16.7985 1.11057 32.8969 3.10844C40.6562 4.07017 47.3424 8.75286 51.5492 15.2445C53.5005 18.2556 54.8951 21.6675 55.4461 25.2224C55.6929 26.8024 54.6656 32.0862 55.9167 33.2368C61.5525 17.3912 43.1298 1.66585 28.7475 1.78034C20.5118 1.84904 12.322 6.27413 7.31743 12.7429C4.43637 16.4639 3.11637 20.368 2.34158 24.9706C2.12349 26.2471 1.17079 27.8386 1.88818 29.2468C2.20958 28.806 1.81931 28.2164 2.10627 27.7298C2.41045 27.9645 2.52523 28.2965 2.45062 28.7316L2.44488 28.7259ZM9.26301 32.8876C9.73936 26.8425 13.4698 20.3508 20.2478 20.1104C22.5205 20.0303 25.3499 22.5834 26.997 22.4117C29.5395 22.1483 23.8003 19.0972 23.0657 18.8968C6.51395 14.4717 4.59707 44.7547 12.959 44.3883C11.0938 40.7933 9.24579 37.2326 9.26301 32.8876ZM42.0394 26.7852C41.9763 22.5834 36.283 20.8947 34.9687 25.1881C33.4019 30.323 41.873 32.1434 42.0394 26.7852ZM16.4484 26.333C16.4886 31.1645 23.6109 31.2905 23.4617 26.396C23.3125 21.2954 16.437 21.5072 16.4484 26.333ZM35.0032 22.1655C33.8726 22.3029 30.8997 25.1766 33.3044 25.2854C33.643 25.3026 35.0548 22.1884 35.0032 22.1655ZM26.2337 24.0604C25.6426 23.2589 24.0471 21.8449 23.1116 21.8106C23.5191 22.8181 24.5579 24.7072 25.3155 25.3427C25.6196 24.919 25.9181 24.4954 26.2337 24.0546V24.0604ZM52.9725 41.1482C52.0542 41.0451 50.6481 43.8502 50.6022 44.4112C51.4057 44.0276 52.6052 41.9553 52.9725 41.1482ZM4.41916 16.6127C4.47655 16.647 4.5282 16.6814 4.58559 16.7215C5.31447 15.4334 6.65169 13.9966 7.01326 12.5769C5.97447 13.7676 5.2456 15.2731 4.41916 16.6127ZM47.021 47.8001C47.0439 47.8345 47.0669 47.8631 47.0899 47.8974C47.7154 47.4624 48.5763 46.8728 48.9092 46.1801C48.0253 46.2259 47.394 46.764 47.021 47.7944V47.8001ZM6.39917 41.8237C6.39917 40.9707 6.10647 40.4956 5.51534 40.3983C5.44073 40.9936 5.91134 42.3961 6.39917 41.8237ZM9.57293 9.74894C9.53849 9.71459 9.49832 9.68024 9.46388 9.6459C8.98179 10.1726 8.4997 10.7049 8.01187 11.2316C8.04057 11.2545 8.06353 11.2774 8.09222 11.306C8.58579 10.7851 9.07936 10.2699 9.57293 9.74894ZM13.2747 44.726C13.0738 44.8291 12.9303 44.9035 12.7811 44.9779C13.091 45.1668 13.619 45.184 13.2747 44.726Z" fill="black"/>
<path d="M29.9814 64.3441C29.9814 63.2736 29.4304 59.7874 30.211 59.0661C31.7089 57.6865 36.0993 59.8332 36.7708 61.2987C37.8727 63.6858 35.3877 64.2812 35.4106 65.9642C35.4279 67.2694 37.3275 68.6261 38.0048 69.7309C34.5498 70.3893 33.8209 64.7906 31.7892 66.8229C31.2842 67.3266 32.5066 70.9675 30.2626 69.7596C29.4649 69.3302 29.947 65.2372 29.947 64.3499C29.9584 64.3499 29.9757 64.3499 29.9871 64.3499L29.9814 64.3441ZM32.7075 60.6403C31.1235 60.6403 31.3301 64.264 32.0131 65.3288C32.7477 64.4872 34.1652 64.9452 34.7736 64.1667C35.9788 62.621 34.9458 60.3427 32.7132 60.6403H32.7075Z" fill="black"/>
<path d="M28.3974 62.2318C28.4433 62.9588 29.1951 70.1775 26.7043 69.7767C26.0099 69.668 26.1189 68.3571 25.4302 68.1796C24.908 68.0422 24.776 69.4562 23.4617 68.9123C21.1775 67.9563 21.1488 63.1191 21.453 61.2529C21.8203 59.0031 22.2048 58.2131 23.2838 60.4056C24.1906 62.2547 22.8017 65.0482 24.1217 66.9488C25.8779 65.2429 25.2523 65.3974 26.9282 66.8687C27.0315 65.6551 25.8836 60.1995 26.5494 59.3638C28.3974 57.0625 28.4376 61.5105 28.4376 62.226C28.4203 62.226 28.4089 62.226 28.3916 62.226L28.3974 62.2318Z" fill="black"/>
<path d="M22.8419 56.9194C21.9925 56.9709 15.2719 58.6539 15.3408 57.0625C15.3867 55.9691 22.1187 56.7877 22.8419 56.845C22.8419 56.8679 22.8419 56.8965 22.8419 56.9194Z" fill="black"/>
<path d="M39.2846 56.4729C46.8431 56.4729 36.2773 58.631 36.2486 57.1484C36.2314 56.3755 38.9861 56.4958 39.2846 56.4729Z" fill="black"/>
<path d="M46.7512 53.4388C46.7512 49.7179 49.6208 54.6868 48.3123 54.6009C47.8474 54.5723 47.8991 54.08 47.6179 53.8224C47.4055 54.08 47.4399 54.5265 47.021 54.5952C46.6766 54.3032 46.5905 53.9197 46.7627 53.4388H46.757H46.7512Z" fill="black"/>
<path d="M49.6266 51.8989C50.981 52.0936 50.1603 53.5877 50.344 54.5608C49.2076 54.5036 48.4787 51.8302 49.6266 51.8989Z" fill="black"/>
<path d="M29.1722 6.12529C36.3634 5.92493 36.4667 16.9161 29.528 17.5C21.872 18.1412 21.2464 5.98217 29.1722 6.12529ZM29.0574 7.73961C24.248 7.316 23.7601 14.9583 28.4031 15.6567C34.2226 16.5325 34.544 7.33317 29.0574 7.73961Z" fill="black"/>
<path d="M4.62003 30.8039C5.07342 19.8871 12.1096 7.15571 24.38 6.06232C21.2464 9.75466 15.8401 10.808 12.2302 14.6892C8.08074 19.1487 6.24421 25.0793 4.62003 30.8039Z" fill="black"/>
<path d="M41.0752 26.4361C40.903 30.1284 35.4967 29.659 35.7263 26.1326C35.9444 22.8296 40.8686 22.9956 41.0752 26.4361ZM39.6002 26.499C39.6002 23.7627 37.3275 26.4647 37.3275 26.4647C37.3333 26.4647 39.6002 29.2182 39.6002 26.499Z" fill="black"/>
<path d="M20.0354 23.5337C23.2666 23.6138 23.4847 28.6457 20.3166 29.1209C16.8215 29.6418 16.2648 23.4421 20.0354 23.5337ZM19.9321 27.6039C21.8146 27.6039 21.1431 25.6232 19.9493 25.2053C18.8589 24.8274 18.4342 27.6039 19.9321 27.6039Z" fill="black"/>
<path d="M28.6843 15.5937C24.8563 14.5976 25.9984 6.92673 30.3946 9.17648C33.1437 10.5847 31.7031 15.983 28.7016 15.4964C28.7016 15.5307 28.6901 15.5594 28.6843 15.5937ZM29.1377 13.1379C31.0259 13.1551 30.8595 10.4302 29.0976 10.4302C27.261 10.4302 27.3299 13.1207 29.1377 13.1379Z" fill="black"/>
</g>
<defs>
<clipPath id="clip0_8_789">
<rect width="58" height="70" fill="white"/>
</clipPath>
</defs>
</svg>
